<?xml version="1.0" encoding="utf-8"?>
<!-- Generator: Adobe Illustrator 16.0.0, SVG Export Plug-In . SVG Version: 6.00 Build 0)  -->
<!DOCTYPE svg PUBLIC "-//W3C//DTD SVG 1.1//EN" "http://www.w3.org/Graphics/SVG/1.1/DTD/svg11.dtd">
<svg version="1.1" id="Camada_1" xmlns="http://www.w3.org/2000/svg" xmlns:xlink="http://www.w3.org/1999/xlink" x="0px" y="0px"
	 width="200px" height="200px" viewBox="0 0 200 200" enable-background="new 0 0 200 200" xml:space="preserve">
<path fill-rule="evenodd" clip-rule="evenodd" fill="#AAEF45" d="M183.604,39.8C127.086,51.412,70.575,63.054,14.128,74.975
	c-2.858,0.608-6.922,3.698-7.159,5.951c-0.247,2.345,2.925,5.994,5.561,7.475c9.896,5.561,20.344,10.206,30.215,15.801
	c2.437,1.383,4.82,5.008,4.937,7.689c0.594,13.535,0.208,27.119,0.728,40.66c0.107,2.699,2.042,6.397,4.297,7.616
	c1.771,0.968,5.841-0.514,8.025-2.057c5.126-3.624,9.716-7.953,14.564-11.958c6.19-5.11,12.02-13.606,18.736-14.336
	c7.04-0.765,14.944,5.939,22.471,9.379c0.234,0.104,0.473,0.191,0.688,0.313c5.711,3.335,9.697,1.891,13.387-3.46
	c19.775-28.7,39.814-57.239,59.723-85.859c1.246-1.787,2.178-3.786,2.734-4.774C193.25,41.391,189.453,38.594,183.604,39.8z
	 M85.354,111.138c-8.538,5.558-15.216,12.022-19.185,21.218c-1.634,3.777-3.925,7.285-7.659,10.616
	c0-9.435-0.114-18.868,0.12-28.291c0.038-1.345,1.417-3.237,2.715-3.887c28.521-14.544,57.126-28.956,85.716-43.384
	c0.291,0.45,0.582,0.903,0.879,1.355C127.111,82.94,106.484,97.401,85.354,111.138z"/>
</svg>
